<svg width="25" height="24" viewBox="0 0 25 24" fill="none" xmlns="http://www.w3.org/2000/svg">
    <path d="M25 11.5C25 17.5406 19.4031 22.4375 12.5 22.4375C11.262 22.4392 10.029 22.2784 8.83281 21.9594C7.92031 22.4219 5.825 23.3094 2.3 23.8875C1.9875 23.9375 1.75 23.6125 1.87344 23.3219C2.42656 22.0156 2.92656 20.275 3.07656 18.6875C1.1625 16.7656 0 14.25 0 11.5C0 5.45937 5.59687 0.5625 12.5 0.5625C19.4031 0.5625 25 5.45937 25 11.5ZM7.8125 11.5C7.8125 11.0856 7.64788 10.6882 7.35485 10.3951C7.06183 10.1021 6.6644 9.9375 6.25 9.9375C5.8356 9.9375 5.43817 10.1021 5.14515 10.3951C4.85212 10.6882 4.6875 11.0856 4.6875 11.5C4.6875 11.9144 4.85212 12.3118 5.14515 12.6049C5.43817 12.8979 5.8356 13.0625 6.25 13.0625C6.6644 13.0625 7.06183 12.8979 7.35485 12.6049C7.64788 12.3118 7.8125 11.9144 7.8125 11.5ZM14.0625 11.5C14.0625 11.0856 13.8979 10.6882 13.6049 10.3951C13.3118 10.1021 12.9144 9.9375 12.5 9.9375C12.0856 9.9375 11.6882 10.1021 11.3951 10.3951C11.1021 10.6882 10.9375 11.0856 10.9375 11.5C10.9375 11.9144 11.1021 12.3118 11.3951 12.6049C11.6882 12.8979 12.0856 13.0625 12.5 13.0625C12.9144 13.0625 13.3118 12.8979 13.6049 12.6049C13.8979 12.3118 14.0625 11.9144 14.0625 11.5ZM18.75 13.0625C19.1644 13.0625 19.5618 12.8979 19.8549 12.6049C20.1479 12.3118 20.3125 11.9144 20.3125 11.5C20.3125 11.0856 20.1479 10.6882 19.8549 10.3951C19.5618 10.1021 19.1644 9.9375 18.75 9.9375C18.3356 9.9375 17.9382 10.1021 17.6451 10.3951C17.3521 10.6882 17.1875 11.0856 17.1875 11.5C17.1875 11.9144 17.3521 12.3118 17.6451 12.6049C17.9382 12.8979 18.3356 13.0625 18.75 13.0625Z"
          fill="black"/>
</svg>
